<svg xmlns="http://www.w3.org/2000/svg" width="41.724" height="39.543" viewBox="0 0 41.724 39.543">
<g id="Group_24" data-name="Group 24" transform="translate(0)">
    <path id="Path_16" data-name="Path 16" d="M141.052,181.894l.077,20.712a1.2,1.2,0,0,1-1.111,1.3H110.155a1.2,1.2,0,0,1-1.111-1.3l.045-20.636Zm-2.145,19.413-.184-16.987H111.212l.054,16.987h27.642Zm-29.765,0Zm-3.235-19.021a.991.991,0,0,1-1.5-.382,1.449,1.449,0,0,1,.261-1.757l19.669-15.584a.963.963,0,0,1,1.176,0l19.931,15.584a1.377,1.377,0,0,1,.327,1.757,1.048,1.048,0,0,1-1.568.382l-19.277-15.049Z" transform="translate(-104.223 -164.362)" fill="#707070"/>
</g>
</svg>
