<?xml version="1.0" standalone="no"?>
<!DOCTYPE svg PUBLIC "-//W3C//DTD SVG 20010904//EN"
 "http://www.w3.org/TR/2001/REC-SVG-20010904/DTD/svg10.dtd">
<svg version="1.0" xmlns="http://www.w3.org/2000/svg"
 width="260.000000pt" height="260.000000pt" viewBox="0 0 260.000000 260.000000"
 preserveAspectRatio="xMidYMid meet">
<metadata>
Created by potrace 1.11, written by Peter Selinger 2001-2013
</metadata>
<g transform="translate(0.000000,260.000000) scale(0.100000,-0.100000)"
fill="#000000" stroke="none">
<path d="M1009 1919 c-156 -270 -295 -510 -307 -533 -42 -72 -289 -500 -311
-536 -11 -19 -28 -48 -37 -65 -9 -16 -73 -127 -142 -245 -69 -118 -136 -235
-150 -260 -14 -25 -31 -54 -38 -65 -8 -11 -14 -25 -14 -32 0 -10 267 -12 1295
-12 l1294 0 -26 47 c-15 26 -116 202 -226 392 -110 190 -208 359 -218 377 -10
18 -100 173 -200 345 -194 334 -209 360 -238 411 -38 68 -364 633 -375 650 -6
9 -13 17 -17 17 -3 0 -133 -221 -290 -491z m451 -76 c85 -147 157 -272 160
-277 3 -6 12 -22 21 -36 15 -22 364 -627 418 -724 12 -21 78 -135 148 -255 69
-119 127 -219 129 -222 2 -3 -462 -6 -1031 -6 -633 0 -1035 4 -1035 10 0 5 15
34 34 65 37 61 422 727 464 802 13 25 39 70 58 100 58 98 431 744 448 778 9
17 20 32 24 32 4 0 77 -120 162 -267z"/>
</g>
</svg>
