<svg xmlns="http://www.w3.org/2000/svg" width="36.344" height="31.801" viewBox="0 0 36.344 31.801">
  <path id="bars-solid" d="M1.3,65.841H35.046a1.3,1.3,0,0,0,1.3-1.3V61.3a1.3,1.3,0,0,0-1.3-1.3H1.3A1.3,1.3,0,0,0,0,61.3v3.245A1.3,1.3,0,0,0,1.3,65.841Zm0,12.98H35.046a1.3,1.3,0,0,0,1.3-1.3V74.278a1.3,1.3,0,0,0-1.3-1.3H1.3a1.3,1.3,0,0,0-1.3,1.3v3.245A1.3,1.3,0,0,0,1.3,78.821Zm0,12.98H35.046a1.3,1.3,0,0,0,1.3-1.3V87.258a1.3,1.3,0,0,0-1.3-1.3H1.3a1.3,1.3,0,0,0-1.3,1.3V90.5A1.3,1.3,0,0,0,1.3,91.8Z" transform="translate(0 -60)" fill="#e4e4e4"/>
</svg>
