<svg xmlns="http://www.w3.org/2000/svg" width="44.587" height="44.607" viewBox="0 0 44.587 44.607">
  <g id="tuning-fork-svgrepo-com" transform="matrix(0.875, 0.485, -0.485, 0.875, 15.126, -3.786)">
    <g id="Group_7" data-name="Group 7" transform="matrix(0.259, -0.966, 0.966, 0.259, -0.252, 30.745)">
      <path id="Path_8" data-name="Path 8" d="M31.54,6.741a1.439,1.439,0,0,0-2,.012l-9.428,9.187a3.278,3.278,0,0,1-4.553.028,3.084,3.084,0,0,1,.028-4.436l9.428-9.187A1.352,1.352,0,0,0,25.028.4a1.439,1.439,0,0,0-2,.012L13.6,9.6a5.808,5.808,0,0,0-.925,7.246L3.537,25.75a2.879,2.879,0,0,0-2.7.727A2.685,2.685,0,0,0,.81,30.343a2.858,2.858,0,0,0,3.968-.024,2.708,2.708,0,0,0,.745-2.634l9.139-8.906a6.185,6.185,0,0,0,7.438-.9l9.428-9.187A1.352,1.352,0,0,0,31.54,6.741Z" transform="translate(0 0)" fill="#707070"/>
    </g>
  </g>
</svg>
