<svg xmlns="http://www.w3.org/2000/svg" width="40.195" height="41.451" viewBox="0 0 40.195 41.451">
  <path id="Path_9" data-name="Path 9" d="M38.1,969.362a.716.716,0,0,0-.393.118L18.236,984.553a.639.639,0,0,0-.236.51v25.122a.653.653,0,0,0,.628.628H31.817a.653.653,0,0,0,.628-.628V995.74h11.3v14.445a.653.653,0,0,0,.628.628H57.566a.653.653,0,0,0,.628-.628V985.063a.638.638,0,0,0-.235-.51L38.49,969.48A.612.612,0,0,0,38.1,969.362Zm0,1.413,18.841,14.6v24.18H45.006V995.112a.653.653,0,0,0-.628-.628H31.817a.653.653,0,0,0-.628.628v14.445H19.256v-24.18Z" transform="translate(-18 -969.362)" fill="#707070"/>
</svg>
