<svg xmlns="http://www.w3.org/2000/svg" width="38.261" height="36.26" viewBox="0 0 38.261 36.26">
  <g id="Group_24" data-name="Group 24" transform="translate(0)">
    <path id="Path_16" data-name="Path 16" d="M138,180.439l.07,18.993a1.1,1.1,0,0,1-1.019,1.191H109.662a1.1,1.1,0,0,1-1.019-1.191l.041-18.923Zm-1.967,17.8-.169-15.577H110.632l.049,15.577h25.347Zm-27.295,0ZM105.767,180.8a.909.909,0,0,1-1.378-.35,1.329,1.329,0,0,1,.24-1.611l18.037-14.29a.883.883,0,0,1,1.079,0l18.276,14.29a1.263,1.263,0,0,1,.3,1.611.961.961,0,0,1-1.438.35L123.2,167Z" transform="translate(-104.223 -164.362)" fill="#707070"/>
  </g>
</svg>
