<svg id="Group_22" data-name="Group 22" xmlns="http://www.w3.org/2000/svg" width="39.415" height="39.415" viewBox="0 0 39.415 39.415">
  <path id="Path_10" data-name="Path 10" d="M19.742,0A19.708,19.708,0,1,1,0,19.742,19.714,19.714,0,0,1,19.742,0Zm0,9.663a7.44,7.44,0,0,1,3.684,13.9,12.152,12.152,0,0,1,8.064,8.9,17.116,17.116,0,0,0,5.631-12.721,17.379,17.379,0,1,0-29.2,12.721,12.152,12.152,0,0,1,8.064-8.9A7.423,7.423,0,0,1,12.235,17.1,7.506,7.506,0,0,1,19.742,9.663Zm9.663,24.469v-.07a9.717,9.717,0,0,0-19.325,0v.07a16.93,16.93,0,0,0,9.663,2.989A17.265,17.265,0,0,0,29.405,34.132ZM19.742,12.026A5.11,5.11,0,1,0,24.817,17.1,5.118,5.118,0,0,0,19.742,12.026Z" fill="#707070"/>
</svg>
